<svg xmlns="http://www.w3.org/2000/svg" width="64" height="39" viewBox="0 0 64 39">
    <g fill="none" fill-rule="evenodd">
        <path fill="#FED846" d="M16.655.933H47.49c8.837 0 16 7.163 16 16v5.236c0 8.837-7.163 16-16 16H8.655a8 8 0 0 1-8-8V16.933c0-8.837 7.163-16 16-16z"/>
        <g transform="translate(22.02 9.498)">
            <rect width="18.106" height="16.332" x="1" y="1.573" stroke="#FFF" stroke-width="2" rx="3"/>
            <circle cx="13.181" cy="6.454" r="1.871" fill="#FFF"/>
            <path fill="#FFF" d="M19.595 15.33l-.664 2.077-1.812.99-14.525-.187-1.83-1.026-.336-4.393c1.527-2.153 3.367-3.23 5.52-3.23 3.23 0 3.662 2.708 7.048 2.708 2.257 0 4.333-.903 6.228-2.708l.37 5.77z"/>
        </g>
    </g>
</svg>
