<svg xmlns="http://www.w3.org/2000/svg" width="64" height="39" viewBox="0 0 64 39">
    <g fill="none" fill-rule="evenodd">
        <path fill="#FED846" d="M16.776.816h30.836c8.837 0 16 7.164 16 16v5.237c0 8.836-7.163 16-16 16H8.776a8 8 0 0 1-8-8V16.816c0-8.836 7.164-16 16-16z"/>
        <g transform="translate(20.558 7.798)">
            <path fill="#FFF" d="M14.035.376H5.172a3.88 3.88 0 0 0-3.88 3.878v14.764a3.879 3.879 0 0 0 3.88 3.879H18.1a3.879 3.879 0 0 0 3.879-3.879V8.322h-6.945a1 1 0 0 1-1-1V.376z"/>
            <path fill="#FFB700" d="M15.222 8.187h6.758L14.222.427v6.76a1 1 0 0 0 1 1z"/>
            <circle cx="6.805" cy="6.805" r="1.633" fill="#FED846"/>
            <path stroke="#FED846" stroke-linecap="round" stroke-linejoin="round" stroke-width="1.5" d="M5.796 12.702h11.636M5.774 17.363H17.41"/>
        </g>
    </g>
</svg>
