<svg xmlns="http://www.w3.org/2000/svg" width="64" height="39" viewBox="0 0 64 39">
    <g fill="none" fill-rule="evenodd">
        <path fill="#FED846" d="M16.186.933h30.836c8.837 0 16 7.163 16 16v5.236c0 8.837-7.163 16-16 16H8.186a8 8 0 0 1-8-8V16.933c0-8.837 7.163-16 16-16z"/>
        <path fill="#FFF" d="M44.27 13.62l-2.856-2.866a4.032 4.032 0 0 0-5.715 0s.113-.028-1.547 1.637l1.897 1.819.843-.93a2.689 2.689 0 0 1 3.81 0l.952.955a2.708 2.708 0 0 1 0 3.821l-4.651 4.835a2.688 2.688 0 0 1-3.81 0l-.784-1.293c-1.651-1.234-1.144-1.53-1.003-2.363l-2.095-2.073a4.062 4.062 0 0 0 0 5.732l2.857 2.867a4.033 4.033 0 0 0 5.715 0l6.387-6.409c2.252-2.596 0-5.732 0-5.732zM26.817 25.565c-1.557 1.393-2.59 1.309-3.641.253l-1.205-1.293a2.708 2.708 0 0 1 0-3.822l5.156-5.172a2.688 2.688 0 0 1 3.81 0l.952.955a2.71 2.71 0 0 1 .555 3.015l2.302 1.762a4.061 4.061 0 0 0 0-5.732l-2.857-2.866a4.031 4.031 0 0 0-5.714 0l-7.062 7.083a4.062 4.062 0 0 0 0 5.733l2.858 2.866a4.033 4.033 0 0 0 5.714 0l2.726-2.82-1.947-1.868-1.647 1.906z"/>
    </g>
</svg>
