<svg xmlns="http://www.w3.org/2000/svg" width="63" height="39" viewBox="0 0 63 39">
    <g fill="none" fill-rule="evenodd">
        <path fill="#FED846" d="M16.084.915h30.837c8.836 0 16 7.164 16 16v13.237a8 8 0 0 1-8 8H16.084c-8.836 0-16-7.164-16-16v-5.237c0-8.836 7.164-16 16-16z"/>
        <path fill="#FFF" d="M40.51 18.582c0-2.143-2.155-3.708-3.07-3.708-.017 0-.04 0-.064.002h-3.009a.005.005 0 0 1-.003-.003c.012-1.44-.605-3.016-1.567-4.004-.918-.936-1.895-1.412-2.905-1.412a2.964 2.964 0 0 0-1.856.641c-.94.638-.77 2.228-.48 3.704.18.908-.908 1.838-1.217 1.938 0 0-.582.16-1.328.422a4.664 4.664 0 0 0-3.12 4.393v4.153c0 2.717 2.234 4.92 4.99 4.92h5.044c2.06 0 3.641-.27 4.654-1.584.204-.27 1.274-2.219 2.003-4.03.25-.62.23-1.382.162-1.939 1.59-.897 1.765-2.73 1.765-3.493"/>
    </g>
</svg>
