<svg xmlns="http://www.w3.org/2000/svg" xmlns:xlink="http://www.w3.org/1999/xlink" width="63" height="39" viewBox="0 0 63 39">
    <defs>
        <path id="a" d="M0 0h14.945v9.652H0z"/>
    </defs>
    <g fill="none" fill-rule="evenodd">
        <path fill="#FFF" d="M16.145.89h30.7c8.836 0 16 7.164 16 16v5.155c0 8.837-7.164 16-16 16h-38.7a8 8 0 0 1-8-8V16.89c0-8.836 7.163-16 16-16z"/>
        <g transform="translate(19.52 7.494)">
            <circle cx="12" cy="12" r="12" fill="#FFDA6A"/>
            <path fill="#000" d="M4.985 8.07a2.343 2.343 0 0 1 .597-.322c.567-.204 1.153-.177 1.757.188a.533.533 0 0 0 .552-.913c-.9-.543-1.819-.586-2.672-.277-.42.152-.735.351-.925.513a.533.533 0 1 0 .691.812zM18.78 6.746c-.852-.309-1.771-.266-2.67.277a.533.533 0 1 0 .55.913c.605-.365 1.191-.392 1.758-.187a2.343 2.343 0 0 1 .597.322.533.533 0 1 0 .691-.812 3.064 3.064 0 0 0-.925-.513z"/>
            <g transform="translate(4.44 10.023)">
                <mask id="b" fill="#fff">
                    <use xlink:href="#a"/>
                </mask>
                <path fill="#000" d="M14.86 1.07a1.262 1.262 0 0 0-.067-.253c-.01-.025-.023-.05-.034-.073a1.332 1.332 0 0 0-.132-.229 1.24 1.24 0 0 0-.108-.127l-.059-.06a1.231 1.231 0 0 0-.153-.118l-.042-.03a1.234 1.234 0 0 0-.22-.105c-.02-.008-.042-.011-.062-.018a1.228 1.228 0 0 0-.178-.041c-.03-.004-.058-.006-.087-.008C13.688.006 13.66 0 13.63 0c-.029 0-.058.005-.087.007-.024.002-.048.003-.072.007-.084.01-.167.028-.25.057-1.026.367-2.444.634-4.066.744a24.81 24.81 0 0 1-2.538.042C4.652.791 2.922.5 1.724.072a1.195 1.195 0 0 0-.321-.064C1.373.006 1.343 0 1.314 0c-.029 0-.057.006-.085.008a1.146 1.146 0 0 0-.263.048C.946.062.924.066.903.073.827.1.753.135.683.176l-.04.029a1.247 1.247 0 0 0-.156.118 1.266 1.266 0 0 0-.3.41C.178.758.165.781.156.807.125.887.1.97.085 1.058A7.385 7.385 0 0 0 .11 3.442c.013.074.034.146.05.22.032.157.063.316.106.47.025.09.06.176.088.264.043.135.082.27.133.401.037.097.083.188.125.282.051.12.099.24.156.356.048.095.104.185.155.278.06.11.117.222.183.328.059.095.126.184.189.277.067.098.13.199.201.294.07.091.146.176.22.265.073.09.143.182.22.268.077.084.16.161.24.242.082.083.16.17.246.25.083.076.172.145.258.218.09.076.176.155.27.227.089.069.183.13.275.195.096.068.19.14.29.203.093.06.192.111.288.167.104.06.205.123.311.178.099.051.202.094.304.14.109.05.215.105.326.15.104.042.212.075.318.113.113.04.224.084.34.118.107.032.217.055.326.082.118.03.234.063.354.087.11.022.223.033.334.05.122.018.242.04.365.053.113.01.229.011.343.017.117.006.233.017.35.017h.044a7.472 7.472 0 0 0 7.343-8.581" mask="url(#b)"/>
            </g>
            <path fill="#000" d="M4.612 12.8a7.222 7.222 0 0 1 .064-1.633.911.911 0 0 1 .891-.77c.1 0 .2.018.295.052 1.501.536 3.7.844 6.029.844 2.33 0 4.527-.308 6.029-.844a.874.874 0 0 1 .294-.051c.44 0 .825.336.893.781a7.274 7.274 0 0 1-2.212 6.376c.075.104.146.211.214.32a7.642 7.642 0 0 0 2.368-6.752 1.29 1.29 0 0 0-1.263-1.1c-.14 0-.28.024-.42.073-1.406.502-3.526.822-5.903.822s-4.497-.32-5.903-.821a1.253 1.253 0 0 0-.42-.074c-.608 0-1.163.446-1.262 1.087a7.561 7.561 0 0 0-.067 1.717c.147 1.965 1.07 3.738 2.45 5.022.07-.109.142-.216.218-.32-1.29-1.22-2.158-2.89-2.295-4.73"/>
            <path fill="#383838" d="M11.893 19.934h.045c1.999-.012 3.812-.795 5.17-2.059a5.95 5.95 0 0 0-.213-.32 7.263 7.263 0 0 1-4.96 2.005h-.042c-1.892 0-3.662-.78-4.986-2.031a6.195 6.195 0 0 0-.218.32c1.385 1.29 3.228 2.085 5.204 2.085"/>
            <path fill="#F55065" d="M11.89 15.254a6.43 6.43 0 0 0-5.184 2.605c1.378 1.279 3.218 2.075 5.187 2.075h.043a7.63 7.63 0 0 0 5.16-2.048 6.43 6.43 0 0 0-5.205-2.632"/>
            <path fill="#88C8FC" d="M4.684 13.486a2.332 2.332 0 0 1-3.264-3.331c.776-.76 3.762-1.366 4.68-1.538.131-.024.244.091.217.221-.19.914-.857 3.888-1.633 4.648M19.118 13.486c-.776-.76-1.442-3.734-1.633-4.648a.186.186 0 0 1 .216-.22c.919.17 3.905.777 4.681 1.537a2.332 2.332 0 1 1-3.264 3.331"/>
        </g>
    </g>
</svg>
