<svg xmlns="http://www.w3.org/2000/svg" width="64" height="39" viewBox="0 0 64 39">
    <g fill="none" fill-rule="evenodd">
        <path fill="#FFF" d="M16.892.932h30.7c8.836 0 16 7.163 16 16v5.155c0 8.836-7.164 16-16 16h-38.7a8 8 0 0 1-8-8V16.932c0-8.837 7.164-16 16-16z"/>
        <g transform="translate(20.268 7.535)">
            <circle cx="12" cy="12" r="12" fill="#FFDA6A"/>
            <path fill="#000" d="M12 21.6c-1.915 0-3.467-2.149-3.467-4.8S10.085 12 12 12s3.467 2.149 3.467 4.8-1.552 4.8-3.467 4.8zM6.141 11.594c-.932-.164-1.5-1.368-1.266-2.69.233-1.32 1.177-2.258 2.11-2.094.932.165 1.5 1.369 1.266 2.69-.232 1.321-1.177 2.259-2.11 2.094zm11.82 0c-.932.165-1.877-.773-2.11-2.094-.232-1.321.335-2.525 1.267-2.69.933-.164 1.877.774 2.11 2.095.233 1.32-.334 2.525-1.266 2.69zM5.41 4.096a.4.4 0 0 1-.625-.5 2.42 2.42 0 0 1 .551-.479c.78-.512 1.75-.644 2.852-.172a.4.4 0 0 1-.315.735c-.841-.36-1.532-.266-2.098.106a1.98 1.98 0 0 0-.365.31zm13.91-.5a.4.4 0 1 1-.625.5 1.98 1.98 0 0 0-.365-.31c-.566-.372-1.257-.466-2.098-.106a.4.4 0 1 1-.315-.735c1.102-.472 2.072-.34 2.852.172.264.173.448.35.551.48z"/>
        </g>
    </g>
</svg>
