<svg xmlns="http://www.w3.org/2000/svg" width="64" height="38" viewBox="0 0 64 38">
    <g fill="none" fill-rule="evenodd">
        <path fill="#FFF" d="M16.313.163h30.7c8.836 0 16 7.163 16 16v5.155c0 8.837-7.164 16-16 16h-38.7a8 8 0 0 1-8-8V16.163c0-8.837 7.163-16 16-16z"/>
        <g transform="translate(19.689 6.767)">
            <circle cx="12" cy="12" r="12" fill="#FFDA6A"/>
            <path fill="#000" d="M6.8 14.4c-.81 0-1.467-.716-1.467-1.6 0-.884.657-1.6 1.467-1.6s1.467.716 1.467 1.6c0 .884-.657 1.6-1.467 1.6zm10.4 0c-.81 0-1.467-.716-1.467-1.6 0-.884.657-1.6 1.467-1.6s1.467.716 1.467 1.6c0 .884-.657 1.6-1.467 1.6zm-1.54 3.205a4.242 4.242 0 0 1-3.66 2.09 4.286 4.286 0 0 1-3.68-2.088.533.533 0 1 1 .917-.547A3.22 3.22 0 0 0 12 18.628a3.176 3.176 0 0 0 2.742-1.567.533.533 0 1 1 .917.544zM4.984 10.231a.533.533 0 1 1-.691-.812c.19-.162.504-.361.925-.513.853-.309 1.772-.266 2.672.277a.533.533 0 1 1-.552.913c-.604-.365-1.19-.392-1.757-.187a2.343 2.343 0 0 0-.597.322zm13.796-1.325c.42.152.735.351.925.513a.533.533 0 1 1-.691.812 2.343 2.343 0 0 0-.597-.322c-.567-.205-1.153-.178-1.757.187a.533.533 0 1 1-.552-.913c.9-.543 1.819-.586 2.672-.277z"/>
        </g>
    </g>
</svg>
