<svg xmlns="http://www.w3.org/2000/svg" xmlns:xlink="http://www.w3.org/1999/xlink" width="95" height="40" viewBox="0 0 95 40">
    <defs>
        <linearGradient id="b" x1="0%" y1="0%" y2="100%">
            <stop offset="0%" stop-color="#8587FF"/>
            <stop offset="100%" stop-color="#6E72FF"/>
        </linearGradient>
        <path id="a" d="M13.893 0c-4 0-6 0-8.154.683A8.482 8.482 0 0 0 .68 5.761C0 7.922 0 9.931 0 13.946v12.108c0 4.016 0 6.023.68 8.185a8.48 8.48 0 0 0 5.06 5.077C7.891 40 9.892 40 13.892 40h12.063c4 0 6 0 8.154-.684a8.479 8.479 0 0 0 5.058-5.077c.681-2.162.681-4.169.681-8.185V13.946c0-4.016 0-6.024-.68-8.185a8.481 8.481 0 0 0-5.06-5.078C31.957 0 29.958 0 25.957 0H13.893z"/>
        <path id="d" d="M13.893.284c-4 0-6 0-8.154.684A8.48 8.48 0 0 0 .681 6.045C.05 8.042.004 9.909 0 13.349V27.22c.004 3.44.051 5.306.68 7.304A8.48 8.48 0 0 0 5.74 39.6c2.152.683 4.153.683 8.153.683h12.063c4 0 6 0 8.154-.683a8.48 8.48 0 0 0 5.058-5.077c.681-2.162.681-4.17.681-8.185V14.23c0-4.015 0-6.023-.68-8.185a8.48 8.48 0 0 0-5.06-5.077C31.957.284 29.958.284 25.957.284H13.893z"/>
        <path id="f" d="M13.893.284c-4 0-6 0-8.154.684A8.48 8.48 0 0 0 .681 6.045C.05 8.042.004 9.909 0 13.349V27.22c.004 3.44.051 5.306.68 7.304A8.48 8.48 0 0 0 5.74 39.6c2.152.683 4.153.683 8.153.683h12.063c4 0 6 0 8.154-.683a8.48 8.48 0 0 0 5.058-5.077c.681-2.162.681-4.17.681-8.185V14.23c0-4.015 0-6.023-.68-8.185a8.48 8.48 0 0 0-5.06-5.077C31.957.284 29.958.284 25.957.284"/>
        <path id="h" d="M27.737.359c-5.014 1.276-3.92 10.212-3.875 10.569-3.749.503-6.408 1.762-6.408 1.762s-2.718 1.126-5.612 3.57c-.232-.274-6.08-7.101-10.395-4.239-3.956 2.624 2.376 17.172 3.703 20.101.2 1.767.655 3.664 1.43 5.7 1.385.129 3.023.129 5.32.129h12.063c4.001 0 6 0 8.154-.684a8.48 8.48 0 0 0 5.059-5.077c.68-2.162.68-4.169.68-8.185v-12.1C35.388 6.953 31.472.292 28.279.291c-.183 0-.363.021-.54.067z"/>
        <path id="j" d="M.637.534C-1.28 2.352 3.336 11.745 3.336 11.745l3.745-7.77S3.791.154 1.631.153C1.26.152.92.266.637.534z"/>
        <path id="l" d="M27.737.359c-5.014 1.276-3.92 10.212-3.875 10.569-3.749.503-6.408 1.762-6.408 1.762s-2.718 1.126-5.612 3.57c-.232-.274-6.08-7.101-10.395-4.239-3.956 2.624 2.376 17.172 3.703 20.101.2 1.767.655 3.664 1.43 5.7 1.385.129 3.023.129 5.32.129h12.063c4.001 0 6 0 8.154-.684a8.48 8.48 0 0 0 5.059-5.077c.68-2.162.68-4.169.68-8.185v-12.1C35.388 6.953 31.472.292 28.279.291c-.183 0-.363.021-.54.067z"/>
        <path id="n" d="M2.27.283C-.36.483.433 7.444.433 7.444l8.416 2.22S4.98.28 2.351.28L2.27.283z"/>
        <path id="p" d="M27.737.359c-5.014 1.276-3.92 10.212-3.875 10.569-3.749.503-6.408 1.762-6.408 1.762s-2.718 1.126-5.612 3.57c-.232-.274-6.08-7.101-10.395-4.239-3.956 2.624 2.376 17.172 3.703 20.101.2 1.767.655 3.664 1.43 5.7 1.385.129 3.023.129 5.32.129h12.063c4.001 0 6 0 8.154-.684a8.48 8.48 0 0 0 5.059-5.077c.68-2.162.68-4.169.68-8.185v-12.1C35.388 6.953 31.472.292 28.279.291c-.183 0-.363.021-.54.067"/>
        <path id="r" d="M27.737.359c-5.014 1.276-3.92 10.212-3.875 10.569-3.749.503-6.408 1.762-6.408 1.762s-2.718 1.126-5.612 3.57c-.232-.274-6.08-7.101-10.395-4.239-3.956 2.624 2.376 17.172 3.703 20.101.2 1.767.655 3.664 1.43 5.7 1.385.129 3.023.129 5.32.129h12.063c4.001 0 6 0 8.154-.684a8.48 8.48 0 0 0 5.059-5.077c.68-2.162.68-4.169.68-8.185v-12.1C35.388 6.953 31.472.292 28.279.291c-.183 0-.363.021-.54.067"/>
        <path id="t" d="M27.737.359c-5.014 1.276-3.92 10.212-3.875 10.569-3.749.503-6.408 1.762-6.408 1.762s-2.718 1.126-5.612 3.57c-.232-.274-6.08-7.101-10.395-4.239-3.956 2.624 2.376 17.172 3.703 20.101.2 1.767.655 3.664 1.43 5.7 1.385.129 3.023.129 5.32.129h12.063c4.001 0 6 0 8.154-.684a8.48 8.48 0 0 0 5.059-5.077c.68-2.162.68-4.169.68-8.185v-12.1C35.388 6.953 31.472.292 28.279.291c-.183 0-.363.021-.54.067"/>
        <path id="v" d="M27.737.359c-5.014 1.276-3.92 10.212-3.875 10.569-3.749.503-6.408 1.762-6.408 1.762s-2.718 1.126-5.612 3.57c-.232-.274-6.08-7.101-10.395-4.239-3.956 2.624 2.376 17.172 3.703 20.101.2 1.767.655 3.664 1.43 5.7 1.385.129 3.023.129 5.32.129h12.063c4.001 0 6 0 8.154-.684a8.48 8.48 0 0 0 5.059-5.077c.68-2.162.68-4.169.68-8.185v-12.1C35.388 6.953 31.472.292 28.279.291c-.183 0-.363.021-.54.067z"/>
        <path id="w" d="M27.737.359c-5.014 1.276-3.92 10.212-3.875 10.569-3.749.503-6.408 1.762-6.408 1.762s-2.718 1.126-5.612 3.57c-.232-.274-6.08-7.101-10.395-4.239-3.956 2.624 2.376 17.172 3.703 20.101.2 1.767.655 3.664 1.43 5.7 1.385.129 3.023.129 5.32.129h12.063c4.001 0 6 0 8.154-.684a8.48 8.48 0 0 0 5.059-5.077c.68-2.162.68-4.169.68-8.185v-12.1C35.388 6.953 31.472.292 28.279.291c-.183 0-.363.021-.54.067"/>
        <path id="x" d="M27.737.359c-5.014 1.276-3.92 10.212-3.875 10.569-3.749.503-6.408 1.762-6.408 1.762s-2.718 1.126-5.612 3.57c-.232-.274-6.08-7.101-10.395-4.239-3.956 2.624 2.376 17.172 3.703 20.101.2 1.767.655 3.664 1.43 5.7 1.385.129 3.023.129 5.32.129h12.063c4.001 0 6 0 8.154-.684a8.48 8.48 0 0 0 5.059-5.077c.68-2.162.68-4.169.68-8.185v-12.1C35.388 6.953 31.472.292 28.279.291c-.183 0-.363.021-.54.067"/>
        <path id="y" d="M27.737.359c-5.014 1.276-3.92 10.212-3.875 10.569-3.749.503-6.408 1.762-6.408 1.762s-2.718 1.126-5.612 3.57c-.232-.274-6.08-7.101-10.395-4.239-3.956 2.624 2.376 17.172 3.703 20.101.2 1.767.655 3.664 1.43 5.7 1.385.129 3.023.129 5.32.129h12.063c4.001 0 6 0 8.154-.684a8.48 8.48 0 0 0 5.059-5.077c.68-2.162.68-4.169.68-8.185v-12.1C35.388 6.953 31.472.292 28.279.291c-.183 0-.363.021-.54.067"/>
        <path id="z" d="M27.737.359c-5.014 1.276-3.92 10.212-3.875 10.569-3.749.503-6.408 1.762-6.408 1.762s-2.718 1.126-5.612 3.57c-.232-.274-6.08-7.101-10.395-4.239-3.956 2.624 2.376 17.172 3.703 20.101.2 1.767.655 3.664 1.43 5.7 1.385.129 3.023.129 5.32.129h12.063c4.001 0 6 0 8.154-.684a8.48 8.48 0 0 0 5.059-5.077c.68-2.162.68-4.169.68-8.185v-12.1C35.388 6.953 31.472.292 28.279.291c-.183 0-.363.021-.54.067"/>
        <path id="B" d="M27.737.359c-5.014 1.276-3.92 10.212-3.875 10.569-3.749.503-6.408 1.762-6.408 1.762s-2.718 1.126-5.612 3.57c-.232-.274-6.08-7.101-10.395-4.239-3.956 2.624 2.376 17.172 3.703 20.101.2 1.767.655 3.664 1.43 5.7 1.385.129 3.023.129 5.32.129h12.063c4.001 0 6 0 8.154-.684a8.48 8.48 0 0 0 5.059-5.077c.68-2.162.68-4.169.68-8.185v-12.1C35.388 6.953 31.472.292 28.279.291c-.183 0-.363.021-.54.067"/>
        <path id="D" d="M27.737.359c-5.014 1.276-3.92 10.212-3.875 10.569-3.749.503-6.408 1.762-6.408 1.762s-2.718 1.126-5.612 3.57c-.232-.274-6.08-7.101-10.395-4.239-3.956 2.624 2.376 17.172 3.703 20.101.2 1.767.655 3.664 1.43 5.7 1.385.129 3.023.129 5.32.129h12.063c4.001 0 6 0 8.154-.684a8.48 8.48 0 0 0 5.059-5.077c.68-2.162.68-4.169.68-8.185v-12.1C35.388 6.953 31.472.292 28.279.291c-.183 0-.363.021-.54.067"/>
        <path id="F" d="M27.737.359c-5.014 1.276-3.92 10.212-3.875 10.569-3.749.503-6.408 1.762-6.408 1.762s-2.718 1.126-5.612 3.57c-.232-.274-6.08-7.101-10.395-4.239-3.956 2.624 2.376 17.172 3.703 20.101.2 1.767.655 3.664 1.43 5.7 1.385.129 3.023.129 5.32.129h12.063c4.001 0 6 0 8.154-.684a8.48 8.48 0 0 0 5.059-5.077c.68-2.162.68-4.169.68-8.185v-12.1C35.388 6.953 31.472.292 28.279.291c-.183 0-.363.021-.54.067"/>
        <path id="H" d="M27.737.359c-5.014 1.276-3.92 10.212-3.875 10.569-3.749.503-6.408 1.762-6.408 1.762s-2.718 1.126-5.612 3.57c-.232-.274-6.08-7.101-10.395-4.239-3.956 2.624 2.376 17.172 3.703 20.101.2 1.767.655 3.664 1.43 5.7 1.385.129 3.023.129 5.32.129h12.063c4.001 0 6 0 8.154-.684a8.48 8.48 0 0 0 5.059-5.077c.68-2.162.68-4.169.68-8.185v-12.1C35.388 6.953 31.472.292 28.279.291c-.183 0-.363.021-.54.067"/>
        <path id="J" d="M27.737.359c-5.014 1.276-3.92 10.212-3.875 10.569-3.749.503-6.408 1.762-6.408 1.762s-2.718 1.126-5.612 3.57c-.232-.274-6.08-7.101-10.395-4.239-3.956 2.624 2.376 17.172 3.703 20.101.2 1.767.655 3.664 1.43 5.7 1.385.129 3.023.129 5.32.129h12.063c4.001 0 6 0 8.154-.684a8.48 8.48 0 0 0 5.059-5.077c.68-2.162.68-4.169.68-8.185v-12.1C35.388 6.953 31.472.292 28.279.291c-.183 0-.363.021-.54.067"/>
        <path id="L" d="M13.893.05c-4 0-6 0-8.154.683A8.48 8.48 0 0 0 .681 5.811C.05 7.808.004 9.674 0 13.114v13.872c.004 3.44.051 5.306.68 7.303a8.48 8.48 0 0 0 5.06 5.077c2.152.684 4.153.684 8.153.684h12.063c4 0 6 0 8.154-.684a8.48 8.48 0 0 0 5.058-5.077c.681-2.162.681-4.169.681-8.185V13.996c0-4.016 0-6.024-.68-8.185a8.48 8.48 0 0 0-5.06-5.078C31.957.05 29.958.05 25.957.05"/>
        <path id="N" d="M0 .26h9.19v19.616H0z"/>
        <path id="P" d="M.056.26h18.697v14.63H.056z"/>
    </defs>
    <g fill="none" fill-rule="evenodd">
        <g>
            <mask id="c" fill="#fff">
                <use xlink:href="#a"/>
            </mask>
            <use fill="url(#b)" xlink:href="#a"/>
            <g mask="url(#c)">
                <g transform="translate(.39 .049)">
                    <mask id="e" fill="#fff">
                        <use xlink:href="#d"/>
                    </mask>
                    <path d="M13.893.284c-4 0-6 0-8.154.684A8.48 8.48 0 0 0 .681 6.045C.05 8.042.004 9.909 0 13.349V27.22c.004 3.44.051 5.306.68 7.304A8.48 8.48 0 0 0 5.74 39.6c2.152.683 4.153.683 8.153.683h12.063c4 0 6 0 8.154-.683a8.48 8.48 0 0 0 5.058-5.077c.681-2.162.681-4.17.681-8.185V14.23c0-4.015 0-6.023-.68-8.185a8.48 8.48 0 0 0-5.06-5.077C31.957.284 29.958.284 25.957.284H13.893z" mask="url(#e)"/>
                </g>
                <g transform="translate(.39 .049)">
                    <mask id="g" fill="#fff">
                        <use xlink:href="#f"/>
                    </mask>
                    <path fill="#FED846" d="M42.044 18.974C40.78 16.016 34.326 1.522 29.73 2.692c-5.015 1.276-3.922 10.213-3.876 10.57-3.748.502-6.408 1.76-6.408 1.76s-2.718 1.128-5.611 3.571c-.233-.274-6.08-7.101-10.396-4.239-3.956 2.625 2.376 17.172 3.704 20.102.246 2.168.874 4.534 2.008 7.11 4.663 10.592 17.091 6.581 21.793 4.598l3.186-1.407c4.222-1.88 16.647-8.495 11.8-19.506-1.134-2.576-2.454-4.635-3.886-6.277" mask="url(#g)"/>
                </g>
                <g transform="translate(2.382 2.382)">
                    <mask id="i" fill="#fff">
                        <use xlink:href="#h"/>
                    </mask>
                    <path fill="#F28C68" d="M9.738 19.31s-4.527-5.26-6.445-3.442c-1.917 1.818 2.7 11.21 2.7 11.21l3.745-7.769z" mask="url(#i)"/>
                </g>
                <g transform="translate(5.038 17.716)">
                    <mask id="k" fill="#fff">
                        <use xlink:href="#j"/>
                    </mask>
                    <path fill="#FAA380" d="M8.288 3.137S3.418-1.783 1.515.065C-.39 1.913 4.31 11.231 4.31 11.231l3.978-8.094z" mask="url(#k)"/>
                </g>
                <g transform="translate(2.382 2.382)">
                    <mask id="m" fill="#fff">
                        <use xlink:href="#l"/>
                    </mask>
                    <path fill="#F28C68" d="M27.33 11.444s-.792-6.961 1.838-7.16c2.63-.2 6.58 9.38 6.58 9.38l-8.417-2.22z" mask="url(#m)"/>
                </g>
                <g transform="translate(29.28 6.382)">
                    <mask id="o" fill="#fff">
                        <use xlink:href="#n"/>
                    </mask>
                    <path fill="#FAA380" d="M-.972 7.61S-1.318.683 1.325.514c2.644-.169 6.344 9.591 6.344 9.591L-.972 7.61z" mask="url(#o)"/>
                </g>
                <g transform="translate(2.382 2.382)">
                    <mask id="q" fill="#fff">
                        <use xlink:href="#p"/>
                    </mask>
                    <path fill="#FED846" d="M44.353 23.546c-8.056-18.3-26.366-9.645-26.366-9.645S-.715 21.665 7.342 39.965c4.528 10.285 17.015 6.204 21.745 4.205l3.206-1.416c4.25-1.891 16.767-8.516 12.06-19.208" mask="url(#q)"/>
                </g>
                <g transform="translate(2.382 2.382)">
                    <mask id="s" fill="#fff">
                        <use xlink:href="#r"/>
                    </mask>
                    <path fill="#FBC136" d="M14.375 45.392c5.335 1.86 11.636-.233 14.657-1.503l3.106-1.372c2.764-1.23 9.125-4.571 11.478-10.097-3.166 3.307-7.867 6.55-13.494 9.048-5.626 2.495-11.18 3.8-15.747 3.924" mask="url(#s)"/>
                </g>
                <g transform="translate(2.382 2.382)">
                    <mask id="u" fill="#fff">
                        <use xlink:href="#t"/>
                    </mask>
                    <path fill="#FED846" d="M17.987 13.901s9.25-4.37 17.494-.327c-8.254-4.865-17.791-.347-17.791-.347S7.94 17.264 5.969 26.666c2.572-8.84 12.018-12.765 12.018-12.765" mask="url(#u)"/>
                </g>
                <g fill="#FBFBFB">
                    <path d="M40.85 30.638a3.802 3.802 0 0 0-4.881-2.007 3.997 3.997 0 0 1-.3.134 3.956 3.956 0 0 1-3.049-.038c-2.241-.972-5.267-2.443-7.427-1.485-2.16.959-3.114 4.195-3.906 6.514a3.976 3.976 0 0 1-2.329 2.42 3.827 3.827 0 0 0-1.804 4.974s1.896 6.06 14.39.517c12.494-5.543 9.307-11.03 9.307-11.03"/>
                    <path d="M32.891 33.164h7.16v7.188h-7.16z"/>
                </g>
                <g transform="translate(2.382 2.382)">
                    <mask id="A" fill="#fff">
                        <use xlink:href="#z"/>
                    </mask>
                    <path fill="#FFF" d="M15.036 33.215a3.304 3.304 0 0 1-3.02-1.975 3.303 3.303 0 0 1-.059-2.534 3.285 3.285 0 0 1 1.743-1.834 3.263 3.263 0 0 1 1.332-.284c1.307 0 2.492.775 3.02 1.974.356.81.377 1.71.06 2.535a3.286 3.286 0 0 1-1.744 1.834 3.264 3.264 0 0 1-1.332.284" mask="url(#A)"/>
                </g>
                <g transform="translate(2.382 2.382)">
                    <mask id="C" fill="#fff">
                        <use xlink:href="#B"/>
                    </mask>
                    <path fill="#6E72FF" d="M15.032 25.721c-.562 0-1.134.116-1.68.358a4.185 4.185 0 0 0-2.126 5.512 4.164 4.164 0 0 0 3.81 2.49c.562 0 1.133-.114 1.68-.357a4.186 4.186 0 0 0 2.126-5.512 4.165 4.165 0 0 0-3.81-2.49m0 1.733c.965 0 1.84.572 2.23 1.458a2.452 2.452 0 0 1-1.243 3.225c-.314.14-.645.21-.983.21a2.44 2.44 0 0 1-2.23-1.458 2.438 2.438 0 0 1-.044-1.871c.234-.61.692-1.09 1.287-1.354.314-.14.644-.21.983-.21" mask="url(#C)"/>
                </g>
                <g transform="translate(2.382 2.382)">
                    <mask id="E" fill="#fff">
                        <use xlink:href="#D"/>
                    </mask>
                    <path fill="#FFF" d="M31.764 25.794a3.304 3.304 0 0 1-3.02-1.974 3.32 3.32 0 0 1 1.684-4.368 3.263 3.263 0 0 1 1.331-.284c1.307 0 2.493.775 3.021 1.974a3.321 3.321 0 0 1-1.684 4.369 3.264 3.264 0 0 1-1.332.283" mask="url(#E)"/>
                </g>
                <g transform="translate(2.382 2.382)">
                    <mask id="G" fill="#fff">
                        <use xlink:href="#F"/>
                    </mask>
                    <path fill="#6E72FF" d="M31.76 18.301a4.14 4.14 0 0 0-1.681.358 4.185 4.185 0 0 0-2.125 5.511 4.163 4.163 0 0 0 3.81 2.491c.562 0 1.133-.115 1.68-.358a4.185 4.185 0 0 0 2.126-5.51 4.165 4.165 0 0 0-3.81-2.492m0 1.733c.964 0 1.84.573 2.23 1.458.263.598.279 1.262.044 1.872a2.425 2.425 0 0 1-1.287 1.354c-.314.14-.645.21-.983.21a2.44 2.44 0 0 1-2.23-1.458 2.452 2.452 0 0 1 1.243-3.226c.314-.14.644-.21.982-.21" mask="url(#G)"/>
                </g>
                <g transform="translate(2.382 2.382)">
                    <mask id="I" fill="#fff">
                        <use xlink:href="#H"/>
                    </mask>
                    <path fill="#424242" d="M23.79 36.029a3.345 3.345 0 0 1-3.303-3.867.664.664 0 1 1 1.312.206 2.011 2.011 0 0 0 2.8 2.155 2.01 2.01 0 0 0 1.173-1.546.662.662 0 0 1 1.025-.455c.578.386 1.299.45 1.93.17a2.003 2.003 0 0 0 1.063-1.118 2.014 2.014 0 0 0-.766-2.411.668.668 0 0 1-.188-.924.664.664 0 0 1 .92-.189c.536.356.955.853 1.213 1.44.36.818.382 1.73.06 2.565a3.325 3.325 0 0 1-1.765 1.856 3.306 3.306 0 0 1-2.42.109 3.327 3.327 0 0 1-3.054 2.009" mask="url(#I)"/>
                </g>
                <g transform="translate(2.382 2.382)">
                    <mask id="K" fill="#fff">
                        <use xlink:href="#J"/>
                    </mask>
                    <path fill="#3F3B3A" d="M26.055 27.191c-.49-.688-2.181.081-2.181.081s-1.705.738-1.529 1.565c.176.827 2.079.964 2.55.755.472-.21 1.651-1.713 1.16-2.4" mask="url(#K)"/>
                </g>
                <g transform="translate(.39 .283)">
                    <mask id="M" fill="#fff">
                        <use xlink:href="#L"/>
                    </mask>
                    <path fill="#424242" d="M5.923 14.064c-.752 0-1.435.221-2.047.664-3.24 2.344 1.604 14.027 3.838 18.94l.158.35.013.119c.25 2.2.906 4.52 1.95 6.892 4.354 9.89 16.01 6.238 20.82 4.21l3.174-1.403c2.129-.948 6.139-3.009 9.055-6.154 3.512-3.786 4.307-7.945 2.363-12.362-1.045-2.372-2.311-4.42-3.765-6.087l-.078-.09-.046-.108c-3.442-8.051-8.5-16.445-11.481-15.842-4.226.851-3.293 9.65-3.282 9.738l.095.74-.737.1c-3.577.48-6.163 1.684-6.189 1.696l-.032.014c-.026.011-2.655 1.12-5.417 3.451l-.568.48-.509-.6c-.507-.608-1.874-2.15-3.603-3.335-1.374-.94-2.616-1.413-3.712-1.413M20.333 49.1c-.104 0-.208 0-.313-.003-5.527-.094-9.414-2.605-11.552-7.46-1.087-2.47-1.777-4.895-2.054-7.21l-.06-.134C1.014 22.54-.083 15.743 3.002 13.512c4.145-3 9.16 1.85 10.92 3.806 2.64-2.1 4.98-3.114 5.222-3.216.239-.11 2.57-1.17 5.903-1.713-.163-2.368-.271-9.699 4.536-10.667C34.66.695 40.837 14.031 42.684 18.335c1.52 1.764 2.842 3.91 3.93 6.379 5.147 11.692-8.022 18.642-12.181 20.494l-3.188 1.408c-2.227.94-6.548 2.483-10.912 2.483" mask="url(#M)"/>
                </g>
            </g>
        </g>
        <path fill="#424242" d="M51.33 30.74a.27.27 0 0 1 .096.214.264.264 0 0 1-.095.212.37.37 0 0 1-.246.08h-.874v2.676c0 .09-.035.163-.106.222a.389.389 0 0 1-.261.09.369.369 0 0 1-.257-.09.286.286 0 0 1-.1-.222v-2.677h-.875a.362.362 0 0 1-.245-.082.27.27 0 0 1-.095-.214c0-.086.033-.155.098-.21a.365.365 0 0 1 .242-.082h2.473c.101 0 .183.028.246.082M53.525 32.844h1.114l-.562-1.195-.552 1.195zm2.296 1.114c0 .089-.032.16-.095.217a.317.317 0 0 1-.217.084.312.312 0 0 1-.181-.056.367.367 0 0 1-.126-.153l-.289-.618h-1.66l-.29.623a.318.318 0 0 1-.296.204c-.096 0-.169-.023-.22-.072a.253.253 0 0 1-.075-.193c0-.031.006-.063.017-.098l1.387-3.055a.343.343 0 0 1 .134-.158.313.313 0 0 1 .2-.046c.067 0 .13.018.187.054.058.036.1.086.125.15l1.37 2.994a.318.318 0 0 1 .029.123zM59.69 33.72a.275.275 0 0 1 .097.218.268.268 0 0 1-.098.211.356.356 0 0 1-.242.085h-1.81a.345.345 0 0 1-.243-.09.289.289 0 0 1-.098-.222v-2.953c0-.089.034-.163.1-.222a.37.37 0 0 1 .257-.09c.093 0 .173.03.24.09s.1.133.1.222v2.667h1.454c.096 0 .177.028.242.085M64.472 33.802c.015.04.021.076.021.11a.283.283 0 0 1-.114.23.409.409 0 0 1-.264.092.327.327 0 0 1-.251-.118l-1.208-1.46-.53.464v.802a.287.287 0 0 1-.098.225.366.366 0 0 1-.253.087c-.1 0-.183-.03-.248-.09a.289.289 0 0 1-.097-.222v-2.953c0-.089.033-.163.1-.222a.37.37 0 0 1 .256-.09c.101 0 .183.03.246.087a.291.291 0 0 1 .094.225v1.39l1.783-1.61a.4.4 0 0 1 .273-.117c.085 0 .157.032.217.097.059.065.09.132.09.204 0 .072-.035.138-.101.2l-1.214 1.062 1.242 1.508c.022.027.04.06.056.1M69.705 30.742c.069.06.103.133.103.222v2.958c0 .089-.032.163-.095.222a.349.349 0 0 1-.25.09.365.365 0 0 1-.254-.087.286.286 0 0 1-.097-.225v-2.058l-.92 1.287a.467.467 0 0 1-.128.1.274.274 0 0 1-.15.032.266.266 0 0 1-.145-.033.46.46 0 0 1-.128-.1l-.92-1.333v2.105c0 .092-.029.167-.089.225a.317.317 0 0 1-.233.087.308.308 0 0 1-.229-.09.302.302 0 0 1-.089-.222v-2.958c0-.085.035-.159.103-.22a.36.36 0 0 1 .248-.092c.056 0 .111.013.167.039a.316.316 0 0 1 .128.1l1.215 1.71 1.248-1.71c.03-.042.07-.075.12-.1a.355.355 0 0 1 .395.051M74.359 31.825a1.133 1.133 0 0 0-1.02-.605 1.14 1.14 0 0 0-.604.16 1.117 1.117 0 0 0-.412.442 1.319 1.319 0 0 0-.147.623c0 .229.048.437.147.624a1.113 1.113 0 0 0 1.017.603 1.13 1.13 0 0 0 1.019-.605c.1-.187.15-.393.15-.622 0-.228-.05-.435-.15-.62m.63 1.548a1.79 1.79 0 0 1-.678.666 1.93 1.93 0 0 1-.971.246 1.93 1.93 0 0 1-.972-.246 1.765 1.765 0 0 1-.674-.666 1.826 1.826 0 0 1-.243-.928c0-.337.08-.646.243-.926.161-.282.386-.504.674-.668.287-.163.611-.245.972-.245.36 0 .683.082.971.245a1.808 1.808 0 0 1 .922 1.594c0 .338-.08.647-.244.928M80.5 30.742c.07.06.103.133.103.222v2.958c0 .089-.031.163-.095.222a.348.348 0 0 1-.25.09.365.365 0 0 1-.253-.087.286.286 0 0 1-.098-.225v-2.058l-.92 1.287a.467.467 0 0 1-.127.1.274.274 0 0 1-.15.032.266.266 0 0 1-.146-.033.46.46 0 0 1-.127-.1l-.92-1.333v2.105c0 .092-.03.167-.09.225a.317.317 0 0 1-.233.087.308.308 0 0 1-.228-.09.303.303 0 0 1-.09-.222v-2.958c0-.085.035-.159.104-.22a.36.36 0 0 1 .248-.092c.055 0 .11.013.167.039a.316.316 0 0 1 .128.1l1.214 1.71 1.248-1.71c.03-.042.07-.075.12-.1a.355.355 0 0 1 .395.051M84.89 33.736c.065.06.097.129.097.207a.261.261 0 0 1-.097.209.363.363 0 0 1-.242.082H82.78a.345.345 0 0 1-.242-.09.29.29 0 0 1-.098-.222v-2.953c0-.089.033-.163.098-.222a.345.345 0 0 1 .242-.09h1.867c.096 0 .177.028.242.085a.274.274 0 0 1 .097.217.256.256 0 0 1-.094.207.37.37 0 0 1-.245.08h-1.51v.867h1.258a.36.36 0 0 1 .243.085.276.276 0 0 1 .098.217.257.257 0 0 1-.095.207.37.37 0 0 1-.246.079h-1.258v.946h1.51c.096 0 .177.029.242.089M89.806 30.74a.275.275 0 0 1 .083.203v2.979a.29.29 0 0 1-.098.222.344.344 0 0 1-.242.09.518.518 0 0 1-.153-.023.218.218 0 0 1-.108-.064l-2.045-2.38v2.18c0 .082-.029.15-.086.205a.315.315 0 0 1-.226.082.296.296 0 0 1-.217-.082.275.275 0 0 1-.084-.205V30.97c0-.089.033-.163.097-.222a.345.345 0 0 1 .243-.09c.056 0 .11.01.164.03.054.021.094.049.12.083l2.028 2.371v-2.198c0-.082.028-.15.086-.204a.31.31 0 0 1 .22-.082c.09 0 .162.028.218.082M94.534 30.74a.27.27 0 0 1 .095.214.264.264 0 0 1-.095.212.37.37 0 0 1-.245.08h-.874v2.676c0 .09-.035.163-.106.222a.389.389 0 0 1-.262.09.37.37 0 0 1-.256-.09.286.286 0 0 1-.1-.222v-2.677h-.875a.362.362 0 0 1-.245-.082.27.27 0 0 1-.095-.214c0-.086.033-.155.098-.21a.365.365 0 0 1 .242-.082h2.473c.1 0 .182.028.245.082"/>
        <g transform="translate(48 5.52)">
            <mask id="O" fill="#fff">
                <use xlink:href="#N"/>
            </mask>
            <path fill="#424242" d="M8.077 14.723H7.83V3.339A3.076 3.076 0 0 0 4.763.26H1.488C.874.26.375.76.375 1.377c0 .618.499 1.118 1.113 1.118h3.275c.464 0 .841.378.841.844v11.384h-2.58v-3.244h.562c.614 0 1.112-.5 1.112-1.117S4.2 9.245 3.586 9.245h-.562V6.98h.562c.614 0 1.112-.5 1.112-1.117 0-.616-.498-1.117-1.112-1.117H1.91c-.614 0-1.113.5-1.113 1.117v8.911a1.115 1.115 0 0 0 .314 2.183h4.492v1.803c0 .617.499 1.117 1.113 1.117s1.113-.5 1.113-1.117v-1.802h.247c.615 0 1.113-.5 1.113-1.117s-.498-1.117-1.113-1.117" mask="url(#O)"/>
        </g>
        <path fill="#424242" d="M67.408 5.781h-2.284c-.614 0-1.113.5-1.113 1.117V24.28c0 .617.499 1.117 1.113 1.117.615 0 1.113-.5 1.113-1.117V8.015h1.17c.465 0 .842.379.842.845v12.938c0 .617.498 1.117 1.113 1.117.614 0 1.112-.5 1.112-1.117V8.86a3.076 3.076 0 0 0-3.066-3.079M62.95 11.616c0-.617-.498-1.117-1.112-1.117-.615 0-1.113.5-1.113 1.117v.817c.084 2.24-.273 8.585-2.884 11.03a1.12 1.12 0 0 0-.055 1.579 1.107 1.107 0 0 0 1.573.055c3.882-3.635 3.604-12.376 3.592-12.705v-.776z"/>
        <path fill="#424242" d="M59.149 17.91V8.86c0-.466.377-.844.84-.844h1.216c.614 0 1.112-.5 1.112-1.118 0-.616-.498-1.117-1.112-1.117H59.99a3.076 3.076 0 0 0-3.067 3.079v9.05c0 .618.499 1.118 1.113 1.118.615 0 1.113-.5 1.113-1.117"/>
        <g transform="translate(75.353 5.52)">
            <mask id="Q" fill="#fff">
                <use xlink:href="#P"/>
            </mask>
            <path fill="#424242" d="M16.527 11.212c0 .797-.645 1.444-1.438 1.444H3.72a1.443 1.443 0 0 1-1.438-1.444v-.648c0-.797.645-1.444 1.438-1.444H15.09c.793 0 1.438.647 1.438 1.444v.648zm2.226 0v-.648a3.675 3.675 0 0 0-3.664-3.678H9.534V4.541h4.861c.615 0 1.113-.5 1.113-1.117s-.498-1.117-1.113-1.117H9.534v-.93C9.534.761 9.036.26 8.42.26c-.614 0-1.113.5-1.113 1.117v5.509H3.72a3.675 3.675 0 0 0-3.664 3.678v.648a3.675 3.675 0 0 0 3.664 3.679H15.09c2.02 0 3.664-1.65 3.664-3.679z" mask="url(#Q)"/>
        </g>
        <path fill="#424242" d="M88.647 23.172a53.926 53.926 0 0 0-13.262-.045 1.116 1.116 0 0 0 .269 2.217 51.64 51.64 0 0 1 12.71.044 1.115 1.115 0 0 0 1.246-.966 1.116 1.116 0 0 0-.963-1.25M93.79 23.163h-1.18c-.614 0-1.112.5-1.112 1.117s.498 1.117 1.112 1.117h1.18c.614 0 1.112-.5 1.112-1.117s-.498-1.117-1.113-1.117"/>
    </g>
</svg>
